<svg width="124" height="24" viewBox="0 0 124 24" fill="none" xmlns="http://www.w3.org/2000/svg">
<path d="M9.3773 0.585039C11.7401 0.585039 13.8049 1.05335 15.5717 1.98996C17.3385 2.92658 18.7009 4.24636 19.6588 5.9493C20.638 7.63096 21.1276 9.5787 21.1276 11.7925C21.1276 13.9851 20.638 15.9328 19.6588 17.6357C18.7009 19.3387 17.3279 20.6585 15.5398 21.5951C13.773 22.5317 11.7188 23 9.3773 23H0.979669V0.585039H9.3773ZM9.02607 18.2743C11.0909 18.2743 12.698 17.7102 13.8475 16.582C14.997 15.4538 15.5717 13.8573 15.5717 11.7925C15.5717 9.7277 14.997 8.12055 13.8475 6.97107C12.698 5.82158 11.0909 5.24684 9.02607 5.24684H6.43972V18.2743H9.02607ZM23.0933 14.0596C23.0933 12.2289 23.4339 10.6217 24.1151 9.23811C24.8175 7.85447 25.7648 6.79013 26.9568 6.04509C28.1489 5.30006 29.4793 4.92754 30.9481 4.92754C32.204 4.92754 33.3003 5.18298 34.2369 5.69386C35.1948 6.20474 35.9292 6.87528 36.4401 7.70546V5.18298H41.9001V23H36.4401V20.4775C35.9079 21.3077 35.1629 21.9782 34.205 22.4891C33.2684 23 32.1721 23.2554 30.9162 23.2554C29.4687 23.2554 28.1489 22.8829 26.9568 22.1379C25.7648 21.3716 24.8175 20.2966 24.1151 18.9129C23.4339 17.508 23.0933 15.8902 23.0933 14.0596ZM36.4401 14.0915C36.4401 12.7291 36.0569 11.6542 35.2906 10.8665C34.5456 10.0789 33.6302 9.68513 32.5446 9.68513C31.459 9.68513 30.533 10.0789 29.7667 10.8665C29.0217 11.6329 28.6491 12.6972 28.6491 14.0596C28.6491 15.4219 29.0217 16.5075 29.7667 17.3164C30.533 18.104 31.459 18.4978 32.5446 18.4978C33.6302 18.4978 34.5456 18.104 35.2906 17.3164C36.0569 16.5288 36.4401 15.4538 36.4401 14.0915ZM56.7065 4.9914C58.7926 4.9914 60.453 5.67258 61.6876 7.03493C62.9435 8.37599 63.5715 10.2279 63.5715 12.5908V23H58.1434V13.3252C58.1434 12.1331 57.8347 11.2071 57.2174 10.5472C56.6001 9.88735 55.7699 9.55741 54.7268 9.55741C53.6838 9.55741 52.8536 9.88735 52.2363 10.5472C51.619 11.2071 51.3103 12.1331 51.3103 13.3252V23H45.8503V5.18298H51.3103V7.54581C51.8638 6.7582 52.6088 6.14088 53.5454 5.69386C54.482 5.22555 55.5357 4.9914 56.7065 4.9914ZM66.2801 14.0596C66.2801 12.2289 66.6206 10.6217 67.3018 9.23811C68.0043 7.85447 68.9515 6.79013 70.1436 6.04509C71.3357 5.30006 72.6661 4.92754 74.1349 4.92754C75.3908 4.92754 76.4871 5.18298 77.4237 5.69386C78.3816 6.20474 79.116 6.87528 79.6269 7.70546V5.18298H85.0869V23H79.6269V20.4775C79.0947 21.3077 78.3496 21.9782 77.3917 22.4891C76.4551 23 75.3589 23.2554 74.1029 23.2554C72.6554 23.2554 71.3357 22.8829 70.1436 22.1379C68.9515 21.3716 68.0043 20.2966 67.3018 18.9129C66.6206 17.508 66.2801 15.8902 66.2801 14.0596ZM79.6269 14.0915C79.6269 12.7291 79.2437 11.6542 78.4774 10.8665C77.7323 10.0789 76.817 9.68513 75.7314 9.68513C74.6458 9.68513 73.7198 10.0789 72.9535 10.8665C72.2084 11.6329 71.8359 12.6972 71.8359 14.0596C71.8359 15.4219 72.2084 16.5075 72.9535 17.3164C73.7198 18.104 74.6458 18.4978 75.7314 18.4978C76.817 18.4978 77.7323 18.104 78.4774 17.3164C79.2437 16.5288 79.6269 15.4538 79.6269 14.0915ZM99.8933 4.9914C101.979 4.9914 103.64 5.67258 104.874 7.03493C106.13 8.37599 106.758 10.2279 106.758 12.5908V23H101.33V13.3252C101.33 12.1331 101.021 11.2071 100.404 10.5472C99.7868 9.88735 98.9567 9.55741 97.9136 9.55741C96.8705 9.55741 96.0404 9.88735 95.423 10.5472C94.8057 11.2071 94.4971 12.1331 94.4971 13.3252V23H89.037V5.18298H94.4971V7.54581C95.0505 6.7582 95.7956 6.14088 96.7322 5.69386C97.6688 5.22555 98.7225 4.9914 99.8933 4.9914ZM115.661 18.4978H123.388V23H109.563V18.6575L116.97 9.68513H109.626V5.18298H123.229V9.52548L115.661 18.4978Z" fill="black"/>
</svg>
